<svg id="e8a5d497-c397-45a0-ad28-7429db5164a4" data-name="レイヤー 1" xmlns="http://www.w3.org/2000/svg" viewBox="0 0 24 22"><title>icons-language</title><path d="M7.16,20.54,9.54,22l1.62-2.59A14.59,14.59,0,0,1,8.6,18.22Z"/><path d="M15.58,7l-4.26,6.82a8.48,8.48,0,0,0,2.67,1l1.59-2.55L18,16.26H15.86a10,10,0,0,1-6.62-2.47A13.87,13.87,0,0,1,6.9,15.47a13.07,13.07,0,0,0,9,3.6h3.91L21.62,22,24,20.54Z"/><path d="M5.05,5.76l-2.79.33a16,16,0,0,0,1.55,5.2A8.91,8.91,0,0,0,6.14,9.65,12.86,12.86,0,0,1,5.05,5.76Z"/><path d="M12.7,4.75H16V1.94H8.76V.06H6V1.94H0V4.75H9.87A10,10,0,0,1,0,13.32v2.81A12.8,12.8,0,0,0,12.7,4.75Z"/></svg>