<svg id="ad0ab8c4-e03a-4ae9-a9b0-7b81256b5fda" data-name="Layer 1" xmlns="http://www.w3.org/2000/svg" xmlns:xlink="http://www.w3.org/1999/xlink" viewBox="0 0 372.48 99.86"><defs><linearGradient id="e23e064d-0ff4-42b2-9ac1-db7c57f70542" x1="55.14" y1="31.82" x2="33.42" y2="74.27" gradientUnits="userSpaceOnUse"><stop offset="0" stop-color="#00d49c"/><stop offset="1" stop-color="#ade900"/></linearGradient></defs><title>BPM - Identity</title><path d="M34.82,27.57v4.81A1.63,1.63,0,0,0,36.44,34l6.28,0a.2.2,0,0,1,.08.38L19.44,44.37A1.78,1.78,0,0,0,18.35,46v7.27a1.49,1.49,0,0,0,2.21,1.3l30.32-17a.29.29,0,0,1,.32.47L18.89,64.68a1.48,1.48,0,0,0-.54,1.14V76.51A1.49,1.49,0,0,0,19.84,78H30.53a1.48,1.48,0,0,0,1.14-.54L58.3,45.15a.28.28,0,0,1,.46.32l-17,30.31A1.49,1.49,0,0,0,43.07,78h7.38a1.61,1.61,0,0,0,1.49-1l10-23.44a.2.2,0,0,1,.39.08l0,6.25a1.63,1.63,0,0,0,1.63,1.63h4.86A1.49,1.49,0,0,0,70.26,60V27.57a1.48,1.48,0,0,0-1.48-1.48H36.31A1.49,1.49,0,0,0,34.82,27.57Z" style="fill:url(#e23e064d-0ff4-42b2-9ac1-db7c57f70542)"/><path d="M109.6,34.13c0,3.25-.8,5.81-4.76,7.46C109.45,43,111,46.1,111,50.05c0,8-6.06,10.27-14.32,10.27H77.3V25.26H97C105.19,25.26,109.6,27.92,109.6,34.13ZM91.77,38.84h2.61A1.68,1.68,0,0,0,96.13,37a1.66,1.66,0,0,0-1.75-1.75H91.77Zm0,11.31h3.16a1.86,1.86,0,0,0,0-3.7H91.77Z"/><path d="M126.13,47.45v13H113v-24h11.41l.21,1.91c1.35-1.16,3.6-3.06,8.36-2.41V47.6A9.71,9.71,0,0,0,126.13,47.45Z"/><path d="M141.55,34.28c-3.9,0-6.81-2-6.81-6.06s2.91-6.11,6.81-6.11,6.81,2,6.81,6.11S145.46,34.28,141.55,34.28Zm-6.61,2.1v24h13.17v-24Z"/><path d="M167.94,38.89l.15-2.51h11.42V58.22c0,10.21-7.36,14.12-15.27,14.12-5.11,0-7.71-.4-11.62-1.8V60a19,19,0,0,0,8.71,1.75c2.81,0,5.06-.7,5.06-2.65v-.8A9.32,9.32,0,0,1,160.58,60c-7.26,0-10.36-5.16-10.36-12.27s3.1-12.27,10.36-12.27A10.43,10.43,0,0,1,167.94,38.89Zm-4.1,9.21c0,1.8.2,2.55,1.4,2.55a2.26,2.26,0,0,0,1.15-.3v-4.5a2.31,2.31,0,0,0-1.25-.3C163.89,45.55,163.84,46.75,163.84,48.1Z"/><path d="M202,35.48c6.61,0,8.71,4.11,8.71,8.71V60.42H197.54V47.3c0-.95-.6-1-.95-1a1.68,1.68,0,0,0-1.1.35V60.42H182.32V25.36h13.17V37.18A13,13,0,0,1,202,35.48Z"/><path d="M232.3,36.38V46.6h-3.91v2.15c0,1.8,1.4,1.9,2.46,1.9a7,7,0,0,0,1.6-.2v10a32.63,32.63,0,0,1-7.16.9c-4.66,0-10.07-1.6-10.07-10.36V46.6h-2.8V36.38h2.8V30.32l13.17-3v9.06Z"/><path d="M268.46,39.49c0,10.61-7.07,14.17-16.33,14.17h-2.81v6.76H235.25V25.36H252C261.39,25.36,268.46,28.87,268.46,39.49Zm-19.14,2.75h1.91c2.35,0,3.05-1.1,3.05-2.75s-.7-2.76-3.05-2.76h-1.91Z"/><path d="M298.05,52.86v7.31a19.64,19.64,0,0,1-6.61,1.15c-2.55,0-5.05-.65-6.36-2.4a11.77,11.77,0,0,1-7.56,2.4c-4.46,0-8.36-2.15-8.36-7.11,0-6.11,5.36-7.86,10.76-7.86a25.94,25.94,0,0,1,4.21.35v-.25c0-1.4-1.35-1.85-4.51-1.85a27,27,0,0,0-8.91,1.55V37.08a43.75,43.75,0,0,1,10.47-1.6c9.06,0,14.77,2.05,14.77,12.27v4.16c0,.7.35,1.05,1.1,1.05A6.16,6.16,0,0,0,298.05,52.86Zm-15.17,1.65a2.45,2.45,0,0,0,1.25-.35V51.71a8.18,8.18,0,0,0-1.1-.1c-.8,0-1.65.35-1.65,1.45A1.35,1.35,0,0,0,282.88,54.51Z"/><path d="M317.84,36.38V46.6h-3.91v2.15c0,1.8,1.4,1.9,2.45,1.9a7,7,0,0,0,1.61-.2v10a32.63,32.63,0,0,1-7.16.9c-4.66,0-10.07-1.6-10.07-10.36V46.6H298V36.38h2.8V30.32l13.17-3v9.06Z"/><path d="M340.07,35.48c6.61,0,8.72,4.11,8.72,8.71V60.42H335.61V47.3c0-.95-.6-1-.95-1a1.68,1.68,0,0,0-1.1.35V60.42H320.39V25.36h13.17V37.18A13,13,0,0,1,340.07,35.48Z"/></svg>